<svg width="1768" height="50" viewBox="0 0 1768 50" fill="none" xmlns="http://www.w3.org/2000/svg">
<path d="M1797.47 21.47C1795.77 21.47 1794.38 22.73 1794.13 24.36H1720.93C1720.82 10.66 1716.27 0 1710.48 0C1704.69 0 1700.14 10.66 1700.03 24.36H6.73C6.49 22.73 5.09 21.47 3.39 21.47C1.52 21.47 0 22.99 0 24.86C0 26.73 1.52 28.25 3.39 28.25C5.09 28.25 6.48 26.99 6.73 25.36H1719.94C1720.05 39.06 1724.6 49.72 1730.39 49.72C1736.18 49.72 1740.73 39.06 1740.84 25.36H1794.14C1794.38 26.99 1795.78 28.25 1797.48 28.25C1799.35 28.25 1800.87 26.73 1800.87 24.86C1800.87 22.99 1799.35 21.47 1797.48 21.47H1797.47ZM1710.48 1C1715.54 1 1719.82 11.65 1719.93 24.36H1701.03C1701.14 11.65 1705.42 1 1710.48 1ZM1730.39 48.72C1725.33 48.72 1721.05 38.07 1720.94 25.36H1739.84C1739.73 38.07 1735.45 48.72 1730.39 48.72Z" fill="black"/>
</svg>
