<svg width="163" height="53" viewBox="0 0 163 53" fill="none" xmlns="http://www.w3.org/2000/svg">
<g clip-path="url(#clip0_15_964)">
<path d="M156.378 39.8035C153.048 39.8035 150.324 42.256 149.835 45.4286H83.3416L127.285 5.62505H13.1654C12.6952 2.45244 9.9524 0 6.62188 0C2.97789 0 0 2.9585 0 6.59824C0 10.238 2.97789 13.1965 6.64147 13.1965C9.972 13.1965 12.6952 10.744 13.185 7.57143H122.23L78.287 47.375H149.835C150.305 50.5476 153.048 53 156.378 53C160.042 53 163.02 50.0415 163.02 46.4018C163.02 42.762 160.042 39.8035 156.378 39.8035Z" fill="black"/>
</g>
<defs>
<clipPath id="clip0_15_964">
<rect width="163" height="53" fill="white"/>
</clipPath>
</defs>
</svg>
