<svg width="355" height="60" viewBox="0 0 355 60" fill="none" xmlns="http://www.w3.org/2000/svg">
<path d="M24.4422 48.9474C17.7041 48.9474 12.2212 43.4695 12.2212 36.7377C12.2212 30.0058 17.7041 24.528 24.4422 24.528C31.1802 24.528 36.6632 30.0058 36.6632 36.7377C36.6632 43.4695 31.1802 48.9474 24.4422 48.9474ZM24.4422 28.1579C19.7057 28.1579 15.8545 32.0056 15.8545 36.7377C15.8545 41.4698 19.7057 45.3175 24.4422 45.3175C29.1786 45.3175 33.0299 41.4698 33.0299 36.7377C33.0299 32.0056 29.1786 28.1579 24.4422 28.1579Z" fill="#2B17F7"/>
<path d="M57.3889 41.6876C48.8738 41.6876 41.9475 34.7676 41.9475 26.2605C41.9475 17.7533 48.8738 10.8333 57.3889 10.8333C65.904 10.8333 72.8303 17.7533 72.8303 26.2605C72.8303 34.7676 65.904 41.6876 57.3889 41.6876ZM57.3889 14.4633C50.8787 14.4633 45.5808 19.7563 45.5808 26.2605C45.5808 32.7646 50.8787 38.0577 57.3889 38.0577C63.8991 38.0577 69.197 32.7646 69.197 26.2605C69.197 19.7563 63.8991 14.4633 57.3889 14.4633Z" fill="#2B17F7"/>
<path d="M32.0387 17.2682C36.4167 17.2682 39.9658 13.7224 39.9658 9.34837C39.9658 4.97439 36.4167 1.42857 32.0387 1.42857C27.6607 1.42857 24.1116 4.97439 24.1116 9.34837C24.1116 13.7224 27.6607 17.2682 32.0387 17.2682Z" fill="#2B17F7"/>
<path d="M7.92713 25.188C3.5573 25.188 0 21.634 0 17.2682C0 12.9024 3.5573 9.34837 7.92713 9.34837C12.297 9.34837 15.8543 12.9024 15.8543 17.2682C15.8543 21.634 12.297 25.188 7.92713 25.188ZM7.92713 12.9783C5.5589 12.9783 3.63327 14.9021 3.63327 17.2682C3.63327 19.6342 5.5589 21.5581 7.92713 21.5581C10.2954 21.5581 12.221 19.6342 12.221 17.2682C12.221 14.9021 10.2954 12.9783 7.92713 12.9783Z" fill="#2B17F7"/>
<path d="M46.9024 57.8571C50.3683 57.8571 53.178 55.05 53.178 51.5873C53.178 48.1246 50.3683 45.3175 46.9024 45.3175C43.4364 45.3175 40.6267 48.1246 40.6267 51.5873C40.6267 55.05 43.4364 57.8571 46.9024 57.8571Z" fill="#2B17F7"/>
<path d="M115.49 35.614V14.4003H118.82V44.2857L98.8512 22.2035V43.4568H95.522V13.5714L115.49 35.614Z" fill="black"/>
<path d="M134.833 22.2894C138.163 22.2894 140.837 23.2735 142.862 25.235C144.857 27.1998 145.857 29.8152 145.857 33.0812L145.814 33.8704L145.731 34.6167H127.262C127.566 36.5254 128.384 38.0213 129.717 39.1012C131.077 40.2074 132.782 40.7622 134.833 40.7622C137.802 40.7622 139.963 39.6824 141.323 37.526H145.066C144.288 39.5172 143.014 41.0693 141.24 42.1756C139.437 43.3115 137.302 43.8762 134.833 43.8762C131.504 43.8762 128.83 42.8955 126.805 40.9306C124.81 38.9658 123.81 36.3504 123.81 33.0845C123.81 29.8185 124.81 27.2031 126.805 25.2383C128.83 23.2735 131.508 22.2927 134.833 22.2927V22.2894ZM134.833 25.4034C132.782 25.4034 131.074 25.9582 129.717 27.0644C128.387 28.1443 127.57 29.6237 127.262 31.506H142.405C142.101 29.6237 141.283 28.1443 139.95 27.0644C138.59 25.9582 136.885 25.4034 134.833 25.4034Z" fill="black"/>
<path d="M169.36 34.5341C169.36 37.4137 168.473 39.6956 166.699 41.383C164.925 43.0441 162.552 43.8729 159.587 43.8729C156.622 43.8729 154.249 43.0441 152.472 41.383C150.698 39.6956 149.812 37.4137 149.812 34.5341V22.7055H153.141V34.5341C153.141 36.4726 153.723 37.9949 154.888 39.1012C156.053 40.2074 157.618 40.7622 159.591 40.7622C161.563 40.7622 163.125 40.2074 164.29 39.1012C165.455 37.9949 166.037 36.4726 166.037 34.5341V22.7055H169.366V34.5341H169.36Z" fill="black"/>
<path d="M174.559 22.7022H177.888V43.4568H174.559V22.7022ZM177.679 32.249C177.679 29.1515 178.388 26.7276 179.801 24.984C181.3 23.1843 183.434 22.2861 186.208 22.2861V25.4001C183.656 25.4001 181.644 26.0374 180.175 27.3088C178.649 28.5835 177.888 30.3667 177.888 32.6651L177.679 32.249Z" fill="black"/>
<path d="M198.601 22.2894C201.927 22.2894 204.604 23.2735 206.629 25.235C208.625 27.1998 209.624 29.8152 209.624 33.0812C209.624 36.3471 208.625 38.9625 206.629 40.9273C204.604 42.8922 201.927 43.8729 198.601 43.8729C195.275 43.8729 192.598 42.8922 190.573 40.9273C188.577 38.9625 187.578 36.3471 187.578 33.0812C187.578 29.8152 188.577 27.1998 190.573 25.235C192.598 23.2702 195.272 22.2894 198.601 22.2894ZM198.601 40.7622C200.931 40.7622 202.804 40.0555 204.217 38.6455C205.63 37.2354 206.298 35.4092 206.298 33.0845C206.298 30.7597 205.603 28.8906 204.217 27.4805C202.804 26.0969 200.931 25.4034 198.601 25.4034C196.271 25.4034 194.398 26.0969 192.985 27.4805C191.598 28.8906 190.903 30.7597 190.903 33.0845C190.903 35.4092 191.595 37.2651 192.985 38.6455C194.398 40.0555 196.271 40.7622 198.601 40.7622Z" fill="black"/>
<path d="M244.935 22.7022H251.176V25.8162H244.935V43.4568H241.606V25.8162H236.198V22.7022H241.606V16.4741L244.935 14.397V22.7022Z" fill="black"/>
<path d="M263.735 22.2894C267.064 22.2894 269.738 23.2734 271.764 25.235C273.759 27.1998 274.759 29.8152 274.759 33.0811L274.716 33.8704L274.633 34.6167H256.163C256.468 36.5254 257.285 38.0213 258.619 39.1012C259.979 40.2074 261.683 40.7622 263.735 40.7622C266.704 40.7622 268.865 39.6824 270.225 37.526H273.968C273.19 39.5172 271.916 41.0693 270.142 42.1756C268.338 43.3115 266.204 43.8762 263.735 43.8762C260.406 43.8762 257.732 42.8955 255.707 40.9306C253.711 38.9658 252.712 36.3504 252.712 33.0845C252.712 29.8185 253.711 27.2031 255.707 25.2383C257.732 23.2734 260.409 22.2927 263.735 22.2927V22.2894ZM263.735 25.4034C261.683 25.4034 259.976 25.9582 258.619 27.0644C257.289 28.1443 256.471 29.6237 256.163 31.506H271.307C271.002 29.6237 270.185 28.1443 268.851 27.0644C267.491 25.9582 265.787 25.4034 263.735 25.4034Z" fill="black"/>
<path d="M282.661 28.8873C282.939 27.2262 283.535 25.8558 284.452 24.7793C285.812 23.1182 287.781 22.2894 290.359 22.2894C292.937 22.2894 295.045 23.1182 296.6 24.7793C298.126 26.4403 298.887 28.6528 298.887 31.4201V43.4568H295.558V31.8329C295.558 29.8978 294.975 28.3325 293.81 27.1437C292.616 25.9813 291.05 25.4001 289.108 25.4001C287.165 25.4001 285.6 25.9813 284.409 27.1437C283.244 28.3325 282.661 29.8978 282.661 31.8329V43.4568H279.332V22.7022H282.661V28.8873Z" fill="black"/>
<path d="M307.412 28.8873C307.69 27.2262 308.285 25.8558 309.202 24.7793C310.559 23.1182 312.531 22.2894 315.109 22.2894C317.687 22.2894 319.795 23.1182 321.347 24.7793C322.873 26.4403 323.634 28.6528 323.634 31.4201V43.4568H320.305V31.8329C320.305 29.8978 319.722 28.3325 318.558 27.1437C317.366 25.9813 315.798 25.4001 313.858 25.4001C311.919 25.4001 310.35 25.9813 309.156 27.1437C307.991 28.3325 307.408 29.8978 307.408 31.8329V43.4568H304.079V22.7022H307.408V28.8873H307.412Z" fill="black"/>
<path d="M332.788 16.2694C332.788 16.9067 332.579 17.445 332.162 17.8875C331.719 18.33 331.163 18.5512 330.498 18.5512C329.832 18.5512 329.276 18.33 328.833 17.8875C328.416 17.445 328.208 16.9067 328.208 16.2694C328.208 15.632 328.416 15.0938 328.833 14.6513C329.276 14.2088 329.832 13.9875 330.498 13.9875C331.163 13.9875 331.719 14.2088 332.162 14.6513C332.579 15.0938 332.788 15.6353 332.788 16.2694ZM328.836 22.7022H332.165V43.4568H328.836V22.7022Z" fill="black"/>
<path d="M352.796 33.2066C354.265 34.2039 355 35.6437 355 37.5227C355 41.7562 351.949 43.8729 345.85 43.8729C339.75 43.8729 336.699 41.4788 336.699 36.6905H340.028C340.028 39.4017 341.971 40.7589 345.853 40.7589C349.735 40.7589 351.677 39.6791 351.677 37.5227C351.677 36.5551 351.247 35.8352 350.387 35.363C349.526 34.8941 348.017 34.5474 345.853 34.3261C342.997 34.0223 340.902 33.3982 339.572 32.457C338.212 31.4895 337.533 30.1058 337.533 28.3061C337.533 24.2938 340.306 22.2861 345.853 22.2861C348.6 22.2861 350.691 22.9234 352.134 24.1948C353.491 25.3836 354.173 27.0314 354.173 29.135H350.843C350.843 26.6451 349.179 25.4001 345.853 25.4001C342.527 25.4001 340.862 26.3677 340.862 28.3061C340.862 29.1911 341.236 29.8416 341.984 30.2577C342.732 30.6738 344.023 30.9908 345.853 31.2121C349.07 31.572 351.386 32.2358 352.799 33.2033L352.796 33.2066Z" fill="black"/>
<path d="M230.308 32.2457H217.07V34.8875H230.308V32.2457Z" fill="black"/>
</svg>
