<svg width="80" height="80" viewBox="0 0 80 80" fill="none" xmlns="http://www.w3.org/2000/svg">
<g clip-path="url(#clip0_22_1381)">
<path d="M21.3668 61.8828C22.5653 61.0221 23.704 60.2013 24.9024 59.3406C30.4289 66.3809 37.5774 69.9634 46.5074 69.4795C52.8561 69.1352 58.3277 66.563 62.6756 61.9202C72.2983 51.6417 71.7227 36.1291 61.4198 26.6739C51.5455 17.6103 34.6098 17.7625 24.8999 30.5383C23.7388 29.7051 22.5703 28.8668 21.3369 27.9812C24.2995 23.8448 28.0494 20.7787 32.5642 18.6731C34.0941 17.9596 35.7211 17.4332 37.3357 16.9268C38.0159 16.7147 38.2825 16.4403 38.2576 15.7293C38.2127 14.3272 38.2451 12.9226 38.2451 11.4632C37.4578 11.4233 36.8124 11.3883 36.0998 11.3509V7H53.7655V11.3484C53.1202 11.3808 52.44 11.4133 51.6078 11.4557C51.6078 13.0623 51.5554 14.634 51.6576 16.1933C51.675 16.4652 52.3278 16.7995 52.739 16.9218C60.4605 19.2045 66.3931 23.7799 70.3299 30.8202C80.0597 48.2189 69.4827 70.3776 49.8287 73.5534C38.2975 75.417 28.909 71.4129 21.6259 62.3369C21.5487 62.2421 21.5014 62.1248 21.3643 61.8853L21.3668 61.8828ZM42.7351 15.7991H47.0381V11.4732H42.7351V15.8016V15.7991Z" fill="black"/>
<path d="M55.8908 30.7256C56.9996 31.8532 57.9813 32.8511 59.12 34.0062C56.8949 36.1967 54.6873 38.4345 52.4 40.59C51.4706 41.4656 51.0471 42.1592 51.4283 43.6211C52.3402 47.1039 49.9084 50.7013 46.45 51.5022C42.9069 52.323 39.2965 50.0926 38.4045 46.5351C37.5175 43.0049 39.6728 39.3176 43.2806 38.4894C44.4019 38.2324 45.6776 38.3546 46.8213 38.5991C47.631 38.7713 48.0845 38.6615 48.6327 38.0927C50.9972 35.6428 53.4091 33.2378 55.8908 30.7256ZM47.0928 44.9084C47.0804 43.6586 46.1086 42.6831 44.8877 42.7056C43.6967 42.7255 42.6677 43.7883 42.6876 44.9758C42.7076 46.2008 43.6943 47.1313 44.955 47.1188C46.2581 47.1039 47.1053 46.2307 47.0928 44.9109V44.9084Z" fill="black"/>
<path d="M31.4927 56.0723H11.5098V51.6914H31.4927V56.0723Z" fill="black"/>
<path d="M31.5002 33.894V38.1452H11.5049V33.894H31.5002Z" fill="black"/>
<path d="M26.9704 47.0738H7V42.7554H26.9704V47.0738Z" fill="black"/>
</g>
<defs>
<clipPath id="clip0_22_1381">
<rect width="67" height="67" fill="white" transform="translate(7 7)"/>
</clipPath>
</defs>
</svg>
