<svg width="80" height="80" viewBox="0 0 80 80" fill="none" xmlns="http://www.w3.org/2000/svg">
<path d="M22.4808 69C26.8746 61.6805 31.1737 54.5169 35.5788 47.1751H2.11171V42.7566H76.8828V47.0665H43.3628C47.8069 54.4695 52.1171 61.6582 56.5221 69H22.4808ZM48.7213 64.5482C45.6099 59.3669 42.5989 54.3554 39.5015 49.1992C36.4012 54.3638 33.3902 59.378 30.2871 64.5482H48.7213Z" fill="black"/>
<path d="M76.9999 25.2277C76.9776 32.4442 70.9416 38.4496 63.7626 38.3967C56.5612 38.341 50.5419 32.2743 50.5977 25.1219C50.6534 17.8914 56.6337 11.9779 63.8713 12.0002C71.1089 12.0225 77.0222 17.9778 76.9999 25.2277ZM72.5336 25.2527C72.843 20.5587 68.4241 16.3435 63.9075 16.4353C58.9588 16.5356 54.9664 20.3498 54.9776 25.1915C54.9888 29.9106 59.0397 33.9671 63.7765 33.9922C68.5802 34.02 72.5308 30.0804 72.5336 25.2527Z" fill="black"/>
<path d="M2.00005 25.222C1.98053 17.9748 7.89944 12.0195 15.1343 12C22.3719 11.9806 28.3466 17.8913 28.4023 25.1245C28.4581 32.277 22.436 38.3436 15.2319 38.3937C8.05278 38.4439 2.01956 32.4357 2.00005 25.222ZM6.46641 25.208C6.46641 30.0552 10.3696 33.9837 15.1789 33.9892C19.9045 33.992 23.9722 29.9634 24.0196 25.2303C24.0698 20.4026 20.0634 16.5438 15.1343 16.4324C10.5787 16.3294 6.16531 20.5696 6.46641 25.208Z" fill="black"/>
</svg>
