<svg width="80" height="80" viewBox="0 0 80 80" fill="none" xmlns="http://www.w3.org/2000/svg">
<path d="M46.547 75.8399V63.4693C44.4804 62.9919 42.571 62.4586 40.6244 62.1519C39.9017 62.0373 39.1044 62.4853 38.3284 62.6266C36.9817 62.8693 35.627 63.0719 34.1124 63.3199V75.8453H23.555V71.6933H29.6777V62.6906C27.5604 62.0426 25.5444 61.1973 24.1577 59.2799C23.963 59.0106 23.3764 58.9493 22.963 58.9173C19.283 58.6453 16.5257 56.4613 15.4644 52.9466C14.4377 49.5386 15.619 46.0613 18.499 43.8133C18.8884 43.5093 19.3177 42.9413 19.315 42.4986C19.2964 38.3333 21.3604 35.6666 25.1097 34.1413C25.2324 34.0906 25.3444 34.0213 25.4964 33.9413V19.7466H17.0457V29.4186H4.53369V4.2666H16.9577V15.2826H25.5284V10.6213H29.7577V15.3093H50.787V10.6426H55.059V15.2853H63.5844V4.28793H76.099V29.4506H63.6644V19.7493H55.1737V33.9999C58.2004 35.0799 60.6057 37.0186 61.0057 40.2799C61.275 42.4613 62.2137 43.8319 63.603 45.3599C65.8964 47.8853 66.1097 50.9626 64.7204 54.0746C63.363 57.1119 60.931 58.6373 57.6484 58.9226C57.2057 58.9599 56.6137 59.0933 56.3817 59.3999C55.011 61.2079 53.0857 62.0346 50.9364 62.6879V71.6559H57.0884V75.8373H46.5497L46.547 75.8399ZM26.4484 47.4959C26.243 47.3599 26.099 47.2586 25.9497 47.1653C24.227 46.0826 22.619 46.0746 21.1097 47.1519C19.6084 48.2213 19.131 49.7199 19.3977 51.4719C19.635 53.0346 21.0617 54.3973 22.8804 54.6826C23.3604 54.7573 23.995 54.4533 24.4217 54.1386C25.3097 53.4853 26.107 52.7066 27.0564 51.8773C27.8004 53.3786 28.3817 54.5519 28.9444 55.6853C28.4644 56.1146 28.075 56.4613 27.5684 56.9119C28.1257 57.3173 28.5417 57.7413 29.0457 57.9653C31.7924 59.1839 34.6457 59.1973 37.5017 58.4719C37.8377 58.3866 38.2244 57.6479 38.227 57.2106C38.2724 49.9226 38.2404 42.6346 38.283 35.3466C38.2884 34.4319 37.899 34.0693 37.1337 33.8719C35.531 33.4533 33.987 34.0239 32.9897 35.3653C33.8297 36.4799 34.6617 37.5813 35.555 38.7653C35.0297 39.0293 34.7657 39.1786 34.4884 39.2959C33.555 39.6906 32.619 40.0773 31.707 40.4559C29.851 38.1679 28.267 37.5146 26.3337 38.1973C24.603 38.8079 23.6324 40.1839 23.6537 42.0853C25.7844 42.3306 27.803 42.9173 29.3737 44.6159C28.4164 45.5573 27.4724 46.4826 26.4484 47.4906V47.4959ZM48.9444 40.4906C47.6697 39.9359 46.467 39.4159 45.035 38.7946C45.987 37.5386 46.827 36.4346 47.6857 35.3066C46.6057 33.9439 45.171 33.5839 43.5337 33.8826C42.7897 34.0186 42.3364 34.3626 42.3417 35.3146C42.3897 42.6453 42.3844 49.9733 42.3444 57.3039C42.339 58.1813 42.707 58.5439 43.4537 58.5919C45.2164 58.7039 46.9977 58.9306 48.7444 58.7839C50.2777 58.6533 51.875 58.2826 52.955 56.8053C52.507 56.4133 52.115 56.0693 51.6884 55.6959C51.979 55.0933 52.2564 54.4906 52.5577 53.9013C52.867 53.2933 53.2004 52.6959 53.6564 51.8453C54.6324 52.7466 55.4084 53.5146 56.2457 54.2106C56.5764 54.4853 57.051 54.7946 57.435 54.7626C59.4457 54.5999 61.1177 52.9573 61.259 51.1333C61.435 48.8159 60.283 47.1893 58.131 46.5226C56.5924 46.0453 55.3817 46.6986 54.3177 47.3786C53.2724 46.4079 52.2884 45.4933 51.299 44.5733C52.875 42.8773 54.923 42.3519 57.0297 42.0586C56.9017 40.0559 55.7924 38.6026 54.099 38.1199C52.1897 37.5759 50.563 38.2986 48.9417 40.4879L48.9444 40.4906ZM29.8457 32.0133C29.859 32.0213 29.9097 32.0746 29.9337 32.0639C30.083 31.9973 30.2457 31.9413 30.3657 31.8373C33.1897 29.3893 36.3044 28.9013 39.7577 30.3519C40.131 30.5093 40.6937 30.4399 41.091 30.2853C42.7364 29.6426 44.4297 29.1733 46.139 29.7733C47.7524 30.3413 49.2804 31.1573 50.7444 31.8186V19.7173H29.8457V32.0133ZM8.78702 8.49327V25.1813H12.7444V8.49327H8.78702ZM71.8137 25.2319V8.5306H67.8537V25.2293H71.8137V25.2319Z" fill="black"/>
<path d="M29.8297 48.5173C32.3337 48.0453 31.8644 46.0746 31.923 44.2959H36.0084C36.8964 48.7759 34.1684 52.4853 29.8297 52.6293V48.5173Z" fill="black"/>
<path d="M50.803 52.6853C46.2457 52.1946 43.8724 48.9466 44.595 44.2666H48.6697C48.8324 45.9573 48.179 48.1386 50.8057 48.5119V52.6826L50.803 52.6853Z" fill="black"/>
</svg>
