<svg width="80" height="80" viewBox="0 0 80 80" fill="none" xmlns="http://www.w3.org/2000/svg">
<path d="M40.5942 7.00015C58.5258 7.05331 73.0866 21.7254 72.9996 39.6546C72.915 57.5404 58.289 72.053 40.4058 71.9999C22.4742 71.9491 7.9158 57.2771 8.00037 39.3453C8.08735 21.462 22.711 6.94699 40.5942 7.00015ZM67.3841 42.2715C50.419 39.3429 40.6039 29.4891 37.7309 12.6278C23.6123 13.9012 14.1741 26.111 13.7077 36.7478C30.5858 39.6595 40.4009 49.5157 43.2715 66.377C55.7519 65.3742 66.1856 54.9477 67.3841 42.2715ZM67.3599 36.5013C65.9463 23.1993 54.882 13.6209 43.5397 12.6979C44.1559 24.2021 54.6814 35.5831 67.3599 36.5013ZM37.4747 66.3722C36.6894 53.7878 25.1201 43.0593 13.6691 42.5639C14.7419 54.2155 24.4 64.9417 37.4747 66.3722Z" fill="black"/>
</svg>
