<svg width="80" height="80" viewBox="0 0 80 80" fill="none" xmlns="http://www.w3.org/2000/svg">
<path d="M40.5101 11.3473C42.948 8.87868 45.2833 6.55928 47.5591 4.18561C48.3726 3.33923 49.2592 2.992 50.4295 3.00014C56.0136 3.04354 61.5976 3.02998 67.179 3.01099C68.3358 3.00557 69.3304 3.18461 69.8305 4.40263C70.3143 5.58268 69.6845 6.3721 68.925 7.13438C63.541 12.5328 58.1758 17.9501 52.7648 23.3187C51.9971 24.081 51.6647 24.8324 51.7106 25.9202C51.7998 27.9955 51.7917 30.0789 51.7106 32.1541C51.6728 33.1362 52.0161 33.6706 52.8296 34.205C63.5491 41.25 66.3789 55.53 59.184 66.1016C53.5378 74.3999 42.9751 78.0079 33.4611 74.8882C23.9282 71.7604 17.5063 62.6401 17.8684 52.5758C18.1522 44.6572 21.7308 38.5318 28.2581 34.1399C28.9771 33.657 29.296 33.1904 29.269 32.3033C29.2014 30.0463 29.3095 27.7812 29.2068 25.5269C29.1771 24.8514 28.8501 24.0376 28.3825 23.5601C22.9849 18.0559 17.5144 12.6169 12.1033 7.12082C11.5735 6.58098 11.1005 5.78614 11.0113 5.05912C10.8762 3.9496 11.9681 3.03541 13.252 3.03269C19.2415 3.01099 25.231 2.98658 31.2177 3.06796C31.9205 3.07881 32.7502 3.5861 33.2908 4.10694C35.6909 6.42093 38.01 8.82172 40.5128 11.3473H40.5101ZM40.4695 71.6519C49.5862 71.9666 58.8867 64.322 58.8948 53.1943C58.9029 43.0323 50.5917 34.7638 40.5182 34.7584C30.3853 34.753 21.9822 43.1544 22.0822 53.2811C22.1903 64.4495 31.4988 71.9422 40.4695 71.6519ZM44.2022 21.3492C44.0751 21.0644 44.0589 20.9667 44.0022 20.9098C39.6776 16.5612 35.3585 12.2045 30.9988 7.88853C30.6718 7.56571 30.0582 7.39752 29.5744 7.38938C26.1986 7.34869 22.82 7.36497 19.4442 7.3731C19.1685 7.3731 18.8955 7.44906 18.4766 7.51417C22.9984 12.0499 27.3878 16.4636 31.7988 20.8555C32.0583 21.1132 32.4908 21.3275 32.8448 21.333C36.5748 21.3682 40.302 21.3547 44.1995 21.3547L44.2022 21.3492ZM62.4301 7.36497C58.5461 7.36497 54.8135 7.35954 51.0809 7.37582C50.7917 7.37582 50.4214 7.45177 50.2295 7.63895C47.9834 9.82544 45.7644 12.039 43.7373 14.0465C45.8617 16.1841 47.8456 18.1834 49.7295 20.0797C53.8432 15.9617 58.0704 11.7298 62.4301 7.36497ZM33.6287 31.5736C38.3019 30.1033 42.8129 30.1847 47.351 31.5302V25.6842H33.6287V31.5736Z" fill="black"/>
<path d="M47.0889 62.9007C42.7268 61.1487 38.6361 61.0653 34.24 62.9347C34.422 58.2658 33.3453 54.255 30.1616 50.649C34.7398 49.4161 38.1641 47.1326 40.5889 42.9766C43.1031 47.0368 46.4812 49.4408 51.0809 50.6274C48.0237 54.2797 46.7341 58.1885 47.0889 62.9007ZM43.2851 53.1642C42.372 52.4813 41.465 51.8016 40.6351 51.1836C39.7343 51.8603 38.8489 52.5215 37.9759 53.1766C38.3214 54.2148 38.67 55.2623 38.997 56.248H42.2733C42.6034 55.2438 42.9489 54.1932 43.2882 53.1673L43.2851 53.1642Z" fill="black"/>
</svg>
